<?xml version="1.0" encoding="utf-8"?>
<!-- Generator: Adobe Illustrator 16.0.0, SVG Export Plug-In . SVG Version: 6.00 Build 0)  -->
<!DOCTYPE svg PUBLIC "-//W3C//DTD SVG 1.1//EN" "http://www.w3.org/Graphics/SVG/1.1/DTD/svg11.dtd">
<svg version="1.1" id="Calque_1" xmlns="http://www.w3.org/2000/svg" xmlns:xlink="http://www.w3.org/1999/xlink" x="0px" y="0px"
	 width="113.643px" height="183px" viewBox="0 0 113.643 183" enable-background="new 0 0 113.643 183" xml:space="preserve">
<g id="face">
	<g id="feet_1_">
		<path fill="#AFA6A0" d="M81.002,177.207c-1.73,2.379-4.389-0.477-7.371-0.477c-2.822,0-5.357,3.01-7.088,0.846
			c-1.465-1.83-2.846-12.471-1.965-14.051c1.66-2.982,5.645-4.096,9.053-4.096c3.326,0,9.25,0.143,10.932,3.004
			C85.52,164.06,82.297,175.427,81.002,177.207z"/>
		<path fill="#AFA6A0" d="M49.001,177.082c-1.73,2.379-4.389-0.477-7.37-0.477c-2.823,0-5.358,3.012-7.088,0.846
			c-1.465-1.83-4.846-14.221-3.965-15.803c1.66-2.98,7.646-2.344,11.054-2.344c3.325,0,7.249,1.893,8.931,4.756
			C51.519,165.685,50.297,175.302,49.001,177.082z"/>
		<path fill="#633E3F" d="M30.48,183h9.937l1.021-0.977L42.367,183h10.402c0,0,1.996-9.268-11.818-9.268
			C27.137,173.732,30.48,183,30.48,183z"/>
		<path fill="#633E3F" d="M62.48,183h9.938l1.021-0.977L74.367,183H84.77c0,0,1.996-9.268-11.818-9.268S62.48,183,62.48,183z"/>
	</g>
	<linearGradient id="legs_and_tail_2_" gradientUnits="userSpaceOnUse" x1="80.1104" y1="155.5698" x2="103.3477" y2="155.5698">
		<stop  offset="0" style="stop-color:#BFB4AC"/>
		<stop  offset="1" style="stop-color:#A09892"/>
	</linearGradient>
	<path id="legs_and_tail_1_" fill="url(#legs_and_tail_2_)" d="M87.064,157.394c-10.166-2.029-7.727,6.223-1.943,5.994
		c12.365-0.486,18.943-15.299,18.164-15.637C102.66,147.478,92.262,158.429,87.064,157.394z"/>
	<g id="body_1_">
		<path fill="#BFB4AC" d="M99.41,125.082c0,29.93-16.205,44.563-42.367,44.563c-26.158,0-42.366-14.633-42.366-44.563
			c0-11.625,17.763-30.137,19.569-32.059c5.309-5.647,11.108-10.727,22.797-10.749c12.289-0.023,18.699,6.468,23.988,12.639
			C82.463,96.583,99.41,113.894,99.41,125.082z"/>
		<path opacity="0.4" fill="#7F7974" d="M84.797,133.988c0,17.969-12.145,29.035-27.127,29.035
			c-14.979,0-27.126-11.066-27.126-29.035s12.147-32.537,27.126-32.537C72.652,101.451,84.797,116.019,84.797,133.988z"/>
	</g>
	<g id="hands_2_">
		<g id="arms_4_">
			
				<linearGradient id="right_1_" gradientUnits="userSpaceOnUse" x1="35.4028" y1="112.5796" x2="66.0889" y2="112.5796" gradientTransform="matrix(-1 0 0 1 144.3711 0)">
				<stop  offset="0" style="stop-color:#BFB4AC"/>
				<stop  offset="1" style="stop-color:#A09892"/>
			</linearGradient>
			<path id="right_3_" fill="url(#right_1_)" d="M81.922,89.077c0,0,26.139,20.223,27.029,39.737
				c0.459,10.037-8.455,7.633-10.533,4.789c-6.266-8.574-9.857-27.148-19.561-40.568C76.551,89.843,81.922,89.077,81.922,89.077z"/>
		</g>
		<g id="arms_3_">
			<linearGradient id="right_4_" gradientUnits="userSpaceOnUse" x1="6.2817" y1="112.5796" x2="36.9678" y2="112.5796">
				<stop  offset="0" style="stop-color:#BFB4AC"/>
				<stop  offset="1" style="stop-color:#A09892"/>
			</linearGradient>
			<path id="right_2_" fill="url(#right_4_)" d="M33.328,89.077c0,0-26.138,20.223-27.029,39.737
				c-0.458,10.037,8.455,7.633,10.533,4.789c6.266-8.574,9.857-27.148,19.56-40.568C38.699,89.843,33.328,89.077,33.328,89.077z"/>
		</g>
		<g id="right_arm_4_">
			<path fill="#AFA6A0" d="M18.825,124.837c-8.506-2.492-13.021-0.236-11.937,7.607c1.087,7.846,3.597,11.402,8.044,12.705
				c4.446,1.303,10.632-1.021,9.545-4.109c-1.086-3.094-3.539-3.729-3.539-3.729s1.703-0.098,3.389-4.506
				C26.012,128.398,22.704,125.974,18.825,124.837z"/>
			<g>
				<defs>
					<path id="SVGID_1_" d="M13.902,134.708c-2.857,7.48,4.427,15.975,6.701,16.641c2.274,0.668,2.226-3.066,5.085-10.547
						c2.858-7.482,3.334-14.086,1.059-14.754C24.472,125.384,16.763,127.228,13.902,134.708z"/>
				</defs>
				<clipPath id="SVGID_2_">
					<use xlink:href="#SVGID_1_"  overflow="visible"/>
				</clipPath>
				<path clip-path="url(#SVGID_2_)" fill="#633E3F" d="M18.825,124.837c-8.506-2.492-13.021-0.236-11.937,7.607
					c1.087,7.846,3.597,11.402,8.044,12.705c4.446,1.303,10.632-1.021,9.545-4.109c-1.086-3.094-3.539-3.729-3.539-3.729
					s1.703-0.098,3.389-4.506C26.012,128.398,22.704,125.974,18.825,124.837z"/>
			</g>
		</g>
		<g id="right_arm_3_">
			<path fill="#AFA6A0" d="M96.426,124.837c8.506-2.492,13.021-0.236,11.936,7.607c-1.086,7.846-3.596,11.402-8.043,12.705
				s-10.633-1.021-9.545-4.109c1.086-3.094,3.539-3.729,3.539-3.729s-1.703-0.098-3.389-4.506S92.547,125.974,96.426,124.837z"/>
			<g>
				<defs>
					<path id="SVGID_3_" d="M101.348,134.708c2.857,7.48-4.426,15.975-6.701,16.641c-2.273,0.668-2.225-3.066-5.084-10.547
						c-2.859-7.482-3.334-14.086-1.059-14.754C90.779,125.384,98.488,127.228,101.348,134.708z"/>
				</defs>
				<clipPath id="SVGID_4_">
					<use xlink:href="#SVGID_3_"  overflow="visible"/>
				</clipPath>
				<path clip-path="url(#SVGID_4_)" fill="#633E3F" d="M96.426,124.837c8.506-2.492,13.021-0.236,11.936,7.607
					c-1.086,7.846-3.596,11.402-8.043,12.705s-10.633-1.021-9.545-4.109c1.086-3.094,3.539-3.729,3.539-3.729
					s-1.703-0.098-3.389-4.506S92.547,125.974,96.426,124.837z"/>
			</g>
		</g>
	</g>
	<g id="head_1_">
		<path opacity="0.4" fill="#7F7974" d="M57.043,81.398c-9.819,0-21.917,2.283-25.601,6.673c3.684,9.045,14.65,16.594,25.892,16.598
			c11.105,0.006,22.051-6.24,25.297-16.029C76.762,82.86,67.598,81.398,57.043,81.398z"/>
		<path fill="#BFB4AC" d="M85.662,52.172c-6.588-6.564-16.824-10.787-28.328-10.787c-11.247,0-21.287,4.033-27.889,10.349
			c0,0-6.382,10.139-6.057,19.328c1.02,14.827,14.721,26.606,33.945,26.606c19.424,0,33.246-12.028,33.967-27.074
			C90.41,57.056,85.662,52.172,85.662,52.172z"/>
		<g>
			<path id="right_5_" fill="none" stroke="#534741" stroke-width="3.3508" stroke-linecap="round" stroke-miterlimit="10" d="
				M35.133,72.53c0,0-0.346-4.568,3.828-5.481c4.174-0.913,5.91,2.741,5.91,2.741"/>
			<path id="left_5_" fill="none" stroke="#534741" stroke-width="3.3508" stroke-linecap="round" stroke-miterlimit="10" d="
				M80.553,72.53c0,0,0.346-4.568-3.83-5.481c-4.172-0.913-5.912,2.741-5.912,2.741"/>
			<ellipse fill="#232323" cx="75.411" cy="71.144" rx="5.284" ry="4.627"/>
			<ellipse fill="#232323" cx="40.411" cy="71.144" rx="5.285" ry="4.627"/>
		</g>
		<g id="Joues">
			<ellipse opacity="0.4" fill="#FF7BAC" cx="34.916" cy="80.638" rx="5.476" ry="4.794"/>
			<ellipse opacity="0.4" fill="#FF7BAC" cx="79.861" cy="80.638" rx="5.477" ry="4.794"/>
		</g>
		<g id="mouth">
			<g id="mouth_1_">
				<path fill="none" stroke="#534741" stroke-width="2" stroke-linecap="round" stroke-miterlimit="10" d="M53.375,79.889
					c2.743,0,7.79-4.164,7.79-4.164"/>
			</g>
			<g id="mouth_2_">
				<path fill="none" stroke="#534741" stroke-width="2" stroke-linecap="round" stroke-miterlimit="10" d="M54.034,75.725
					c0,0,5.376,4.164,8.121,4.164"/>
			</g>
		</g>
	</g>
	<g id="chapeua_1_">
		<path fill="#001891" d="M88.84,47.134C80.697,33.378,66.535,9.825,60.436,1.966C59.906,1.285,58.592-0.015,57.504,0
			c-1.063,0.014-2.281,1.273-2.77,1.939C48.98,9.784,33.635,33.281,25.936,47.056L1.193,55.906c0,0-1.095,0.545-1.183,1.09
			c-0.109,0.669,0.717,1.551,1.173,1.92c2.34,1.901,18.621,5.572,22.755,6.394c0.544-1.274,0.475-2.871,1.09-4.002
			c23.239,4.885,42.14,4.87,64.882,0.163c0.477,1.003,0.381,2.591,0.797,3.839c3.691-0.784,17.473-3.94,19.916-5.67
			c1.844-1.304,3.145-1.478,3.01-2.352c-0.133-0.857-3.412-1.75-3.412-1.75L88.84,47.134z"/>
		<path opacity="0.5" d="M1.193,55.906l23.835,5.401l-1.09,4.002C23.938,65.31-4.311,60.607,1.193,55.906z"/>
		<path opacity="0.5" d="M113.633,57.288l-24.15,4.02l1.09,4.002C90.572,65.31,110.533,61.299,113.633,57.288z"/>
		<g>
			<path fill="#EDBD45" d="M48.828,35.194c0.082-0.144-1.154-1.915-1.154-1.915s1.252-1.764,1.147-1.917
				c-0.097-0.144-2.437,0.369-2.437,0.369s-1.549-1.606-1.729-1.548c-0.17,0.057-0.352,2.143-0.352,2.143s-2.216,0.805-2.216,0.962
				c0,0.169,2.22,0.954,2.22,0.954s0.211,2.076,0.359,2.142c0.139,0.062,1.723-1.552,1.723-1.552S48.75,35.331,48.828,35.194z"/>
			<path fill="#EDBD45" d="M48.607,26.039c0.732-0.138,4.063-8.127,4.063-8.127s9.655-0.992,9.952-1.677
				c0.277-0.639-7.572-5.895-7.572-5.895s1.93-8.452,1.254-8.802c-0.164-0.086-0.824,0.171-1.71,0.596
				c-2.438,3.34-6.485,9.311-10.935,16.135c0.031,0.001,0.052,0.002,0.052,0.002S47.906,26.168,48.607,26.039z"/>
			<path fill="#EDBD45" d="M64.199,15.512c0.09,0.04,1.096-0.988,1.096-0.988s1.502,0.318,1.551,0.231
				c0.053-0.091-0.734-1.218-0.734-1.218s0.797-1.121,0.73-1.219c-0.063-0.092-1.551,0.234-1.551,0.234s-0.984-1.022-1.098-0.984
				c-0.109,0.036-0.225,1.363-0.225,1.363s-1.408,0.511-1.408,0.61c0,0.108,1.41,0.607,1.41,0.607S64.105,15.469,64.199,15.512z"/>
			<path fill="#EDBD45" d="M74.139,36.989c0,0,0.971-4.251,0.631-4.428c-0.322-0.167-4.398,2.255-4.398,2.255
				s-4.326-2.095-4.615-1.893c-0.313,0.217,1.09,4.357,1.09,4.357s-3.553,2.967-3.482,3.259c0.064,0.277,5.072,0.438,5.072,0.438
				s2.111,3.973,2.463,3.907c0.369-0.068,2.045-4.087,2.045-4.087s4.855-0.5,5.006-0.845C78.088,39.633,74.139,36.989,74.139,36.989
				z"/>
			<path fill="#EDBD45" d="M49.841,37.704c-0.063-0.092-1.551,0.234-1.551,0.234s-0.984-1.022-1.098-0.984
				c-0.109,0.036-0.225,1.362-0.225,1.362s-1.408,0.512-1.408,0.611c0,0.108,1.41,0.607,1.41,0.607s0.135,1.319,0.229,1.362
				c0.09,0.039,1.096-0.988,1.096-0.988s1.502,0.318,1.551,0.231c0.053-0.091-0.734-1.218-0.734-1.218S49.908,37.802,49.841,37.704z
				"/>
			<path fill="#EDBD45" d="M28.51,50.514c0.531-0.099,2.945-5.887,2.945-5.887s6.993-0.719,7.208-1.215
				c0.201-0.463-5.487-4.271-5.487-4.271s1.042-4.566,1.009-5.972c-3.064,4.954-5.913,9.716-8.14,13.691
				C26.973,48.506,28.203,50.571,28.51,50.514z"/>
			<path fill="#EDBD45" d="M69.408,55.896c-0.125-0.181-3.1,0.471-3.1,0.471s-1.969-2.043-2.197-1.968
				c-0.215,0.071-0.445,2.724-0.445,2.724s-2.818,1.022-2.818,1.222c0,0.215,2.822,1.214,2.822,1.214s0.27,2.64,0.457,2.723
				c0.176,0.079,2.189-1.974,2.189-1.974s3,0.635,3.1,0.461c0.104-0.182-1.469-2.434-1.469-2.434S69.539,56.093,69.408,55.896z"/>
			<path fill="#EDBD45" d="M39.821,51.496c-0.097-0.144-2.436,0.369-2.436,0.369s-1.549-1.607-1.729-1.548
				c-0.169,0.057-0.352,2.142-0.352,2.142s-2.216,0.805-2.216,0.962c0,0.17,2.219,0.954,2.219,0.954s0.212,2.076,0.359,2.143
				c0.14,0.062,1.723-1.553,1.723-1.553s2.359,0.499,2.438,0.362c0.082-0.144-1.154-1.914-1.154-1.914S39.925,51.649,39.821,51.496z
				"/>
			<path fill="#EDBD45" d="M105.93,58.57c0.387-0.109,0.648-0.217,0.691-0.317c0.277-0.639-7.572-5.895-7.572-5.895
				s0.1-0.444,0.244-1.115L88.84,47.134c-0.1-0.168-0.205-0.345-0.307-0.516c-2.539-1.165-5.805-2.585-6.152-2.343
				c-0.621,0.433,2.17,8.665,2.17,8.665s-7.063,5.896-6.926,6.477c0.131,0.551,10.084,0.872,10.084,0.872s0.32,0.602,0.791,1.458
				c0.35-0.069,0.697-0.137,1.047-0.205l-0.064-0.234L105.93,58.57z"/>
			<path fill="#EDBD45" d="M25.943,58.306c0,0,4.855-0.499,5.005-0.845c0.14-0.32-3.81-2.965-3.81-2.965s0.971-4.251,0.631-4.428
				c-0.322-0.167-4.398,2.255-4.398,2.255s-4.327-2.094-4.616-1.893c-0.312,0.218,1.091,4.358,1.091,4.358s-3.553,2.966-3.483,3.259
				c0.065,0.276,5.073,0.438,5.073,0.438s0.65,1.223,1.289,2.3l1.909,0.433C25.231,60.011,25.943,58.306,25.943,58.306z"/>
		</g>
		<path fill="#001151" d="M27.513,44.304l-1.577,2.763l-4.311,1.537c0,0,45.564,4.892,70.637-0.122l-3.422-1.336l-1.691-2.842
			C75.41,47.513,40.412,46.383,27.513,44.304z"/>
	</g>
	<path fill="#BFB4AC" d="M33.349,48.96c0,0,8.966,0.355,11.297-3.986c-0.102-3.137-11.324-13.154-17.101-13.479
		c-3.891-1.131-7.867,0.854-6.679,0.956c1.187,0.102,4.318-0.075,5.626,0.833c5.577,2.926,5.781,7.096,6.442,9.313
		C33.677,45.088,33.349,48.96,33.349,48.96z"/>
	<path fill="#BFB4AC" d="M80.951,48.96c0,0-8.967,0.355-11.299-3.986c0.102-3.137,11.324-13.154,17.102-13.479
		c3.891-1.131,7.867,0.854,6.68,0.956c-1.188,0.102-4.318-0.075-5.627,0.833c-5.576,2.926-5.781,7.096-6.441,9.313
		C80.623,45.088,80.951,48.96,80.951,48.96z"/>
</g>
</svg>
