<?xml version="1.0" encoding="utf-8"?>
<!-- Generator: Adobe Illustrator 16.0.0, SVG Export Plug-In . SVG Version: 6.00 Build 0)  -->
<!DOCTYPE svg PUBLIC "-//W3C//DTD SVG 1.1//EN" "http://www.w3.org/Graphics/SVG/1.1/DTD/svg11.dtd">
<svg version="1.1" id="Calque_1" xmlns="http://www.w3.org/2000/svg" xmlns:xlink="http://www.w3.org/1999/xlink" x="0px" y="0px"
	 width="113.643px" height="183px" viewBox="0 0 113.643 183" enable-background="new 0 0 113.643 183" xml:space="preserve">
<g>
	<g id="feet_2_">
		<path fill="#AFA6A0" d="M87.715,177.477c-1.412,2.369-3.58-0.476-6.013-0.476c-2.302,0-4.37,3-5.781,0.843
			c-1.195-1.824-2.321-20.279-1.603-21.854c1.354-2.972,4.604-4.081,7.384-4.081c2.713,0,7.545,0.142,8.917,2.993
			C91.399,156.523,88.771,175.703,87.715,177.477z"/>
		<path fill="#AFA6A0" d="M64.002,177.477c-1.73,2.369-4.389-0.476-7.371-0.476c-2.822,0-5.357,3-7.088,0.843
			c-1.465-1.824-3.846-12.428-2.965-14.004c1.659-2.971,6.645-4.08,10.053-4.08c3.326,0,7.25,1.886,8.932,4.738
			C66.52,166.119,65.297,175.703,64.002,177.477z"/>
		<path fill="#633E3F" d="M45.48,183h9.938l1.021-0.973L57.367,183H67.77c0,0,1.996-9.236-11.818-9.236S45.48,183,45.48,183z"/>
		<path fill="#633E3F" d="M72.607,183h8.105l0.833-0.973L82.303,183h8.484c0,0,1.629-9.236-9.64-9.236S72.607,183,72.607,183z"/>
	</g>
	<g id="arms_6_">
		
			<linearGradient id="right_1_" gradientUnits="userSpaceOnUse" x1="40.3979" y1="113.5952" x2="68.8789" y2="113.5952" gradientTransform="matrix(-1 0 0 1 144.3711 0)">
			<stop  offset="0" style="stop-color:#BFB4AC"/>
			<stop  offset="1" style="stop-color:#A09892"/>
		</linearGradient>
		<path id="right_8_" fill="url(#right_1_)" d="M82.922,94.007c0,0,20.139,14.919,21.029,34.366
			c0.459,10.003-6.455,7.605-8.533,4.772c-6.266-8.545-9.857-27.056-19.561-40.429C73.551,89.536,82.922,94.007,82.922,94.007z"/>
	</g>
	<g id="body_2_">
		<path fill="#BFB4AC" d="M97.41,124.654c1.078,29.813-14.205,44.411-40.367,44.411c-26.158,0-40.337-18.98-38.366-43.538
			c1.262-15.729,13.763-30.906,15.569-32.821c5.309-5.628,11.108-10.69,22.797-10.713C69.332,81.97,71.742,84.95,77.031,91.1
			C78.463,92.763,96.809,108.053,97.41,124.654z"/>
		<path opacity="0.4" fill="#7F7974" d="M94.797,132.657c0,17.908-13.512,28.955-20.072,28.937
			c-12.74-0.036-24.07-11.028-24.07-28.937c0-17.907,11.33-32.426,24.07-32.426C82.109,100.231,94.797,114.75,94.797,132.657z"/>
	</g>
	<g id="hands_3_">
		<g id="arms_5_">
			<linearGradient id="right_2_" gradientUnits="userSpaceOnUse" x1="32.2627" y1="117.394" x2="55.9844" y2="117.394">
				<stop  offset="0" style="stop-color:#BFB4AC"/>
				<stop  offset="1" style="stop-color:#A09892"/>
			</linearGradient>
			<path id="right_7_" fill="url(#right_2_)" d="M45.648,95.751c0,0-14.207,11.793-13.349,36.984
				c0.341,10.007,10.985,7.605,13.194,4.772c6.659-8.545,4.129-25.602,10.41-41.302C57.046,93.355,45.648,95.751,45.648,95.751z"/>
		</g>
		<g id="right_arm_6_">
			<path fill="#AFA6A0" d="M47.612,128.772c-9.04-2.482-15.838-0.235-14.686,7.582c1.155,7.819,4.617,9.448,10.549,12.662
				c4.208,2.279,11.299-1.018,10.144-4.097c-1.154-3.082-3.762-3.716-3.762-3.716s1.811-0.096,3.602-4.49
				C55.25,132.322,51.734,129.905,47.612,128.772z"/>
			<g>
				<defs>
					<path id="SVGID_1_" d="M42.381,135.993c-3.037,7.455,4.704,15.92,7.121,16.584c2.418,0.664,2.365-3.057,5.404-10.511
						c3.037-7.458,3.543-14.038,1.125-14.703C53.613,126.701,45.42,128.537,42.381,135.993z"/>
				</defs>
				<clipPath id="SVGID_2_">
					<use xlink:href="#SVGID_1_"  overflow="visible"/>
				</clipPath>
				<path clip-path="url(#SVGID_2_)" fill="#633E3F" d="M47.612,128.772c-9.04-2.482-13.838-0.235-12.686,7.582
					c1.155,7.819,3.822,11.363,8.549,12.662c4.726,1.298,11.299-1.018,10.144-4.097c-1.154-3.082-3.762-3.716-3.762-3.716
					s1.811-0.096,3.602-4.49C55.25,132.322,51.734,129.905,47.612,128.772z"/>
			</g>
		</g>
		<g id="right_arm_5_">
			<path fill="#AFA6A0" d="M97.589,127.04c3.888-1.602,6.276,1.244,6.354,5.143c0.125,6.254-3.051,9.069-5.762,10.361
				s-6.139-0.118-5.246-2.583c0.893-2.466,2.381-3.115,2.381-3.115s-0.988,0.034-1.609-3.278
				C93.087,130.256,95.885,127.741,97.589,127.04z"/>
			<g>
				<defs>
					<path id="SVGID_3_" d="M99.867,134.631c0.711,5.658-4.674,12.468-6.1,13.064c-1.424,0.598-0.911-2.281-1.623-7.94
						c-0.713-5.663-0.136-10.731,1.289-11.329C94.859,127.831,99.154,128.97,99.867,134.631z"/>
				</defs>
				<clipPath id="SVGID_4_">
					<use xlink:href="#SVGID_3_"  overflow="visible"/>
				</clipPath>
				<path clip-path="url(#SVGID_4_)" fill="#633E3F" d="M97.589,127.04c5.185-2.47,7.64-1.008,6.354,5.143
					c-1.287,6.153-3.051,9.069-5.762,10.361s-6.139-0.118-5.246-2.583c0.893-2.466,2.381-3.115,2.381-3.115
					s-0.988,0.034-1.609-3.278C93.087,130.256,95.225,128.167,97.589,127.04z"/>
			</g>
		</g>
	</g>
	<g id="head_2_">
		<path opacity="0.4" fill="#7F7974" d="M57.043,81.121c-9.818,0-21.917,2.274-25.601,6.649c3.684,9.015,14.65,16.538,25.892,16.542
			c11.105,0.005,22.051-6.219,25.297-15.975C76.762,82.578,67.598,81.121,57.043,81.121z"/>
		<path fill="#BFB4AC" d="M85.662,51.994c-6.588-6.541-16.824-10.75-28.328-10.75c-11.246,0-21.287,4.02-27.889,10.313
			c0,0-6.382,10.104-6.057,19.262c1.02,14.776,14.721,26.514,33.945,26.514c19.424,0,33.246-11.985,33.967-26.98
			C90.41,56.861,85.662,51.994,85.662,51.994z"/>
		<g>
			<path id="right_6_" fill="none" stroke="#534741" stroke-width="3.3508" stroke-linecap="round" stroke-miterlimit="10" d="
				M67.131,74.028c0,0-0.284-4.553,3.152-5.463c3.436-0.91,4.865,2.731,4.865,2.731"/>
			<path id="left_1_" fill="none" stroke="#534741" stroke-width="3.3508" stroke-linecap="round" stroke-miterlimit="10" d="
				M87.252,67.286c0,0-0.16-1.186-0.869-1.452c-2.118-0.796-2.597,3.013-2.597,3.013"/>
			<ellipse fill="#232323" cx="85.807" cy="69.032" rx="2.32" ry="3.614"/>
			<ellipse fill="#232323" cx="71.477" cy="72.646" rx="4.351" ry="4.61"/>
		</g>
	</g>
	<path fill="#BFB4AC" d="M87.658,47.823c0,0-7.529,0.298-9.488-3.336c0.086-2.624,9.51-11.008,14.361-11.28
		c3.268-0.946,6.607,0.715,5.609,0.8c-0.996,0.086-3.626-0.063-4.725,0.698c-4.684,2.448-4.855,5.938-5.41,7.793
		C87.383,44.583,87.658,47.823,87.658,47.823z"/>
	<g id="chapeua_2_">
		<path fill="#001891" d="M88.84,46.973C80.697,33.264,66.535,9.792,60.436,1.959C59.906,1.282,58.592-0.014,57.504,0
			c-1.063,0.014-2.281,1.27-2.77,1.933c-5.754,7.818-21.1,31.234-28.798,44.962l-24.743,8.82c0,0-1.095,0.543-1.183,1.086
			c-0.109,0.667,0.717,1.546,1.173,1.914c2.34,1.895,18.621,5.553,22.755,6.371c0.544-1.27,0.475-2.861,1.09-3.987
			c23.24,4.867,42.14,4.853,64.882,0.161c0.477,1.001,0.381,2.583,0.797,3.826c3.691-0.781,17.473-3.927,19.916-5.65
			c1.844-1.3,3.145-1.473,3.01-2.344c-0.133-0.854-3.412-1.744-3.412-1.744L88.84,46.973z"/>
		<path opacity="0.5" d="M1.193,55.715l23.835,5.384l-1.09,3.987C23.938,65.086-4.311,60.401,1.193,55.715z"/>
		<path opacity="0.5" d="M113.633,57.092l-24.15,4.007l1.09,3.987C90.572,65.086,110.533,61.089,113.633,57.092z"/>
		<g>
			<path fill="#EDBD45" d="M48.828,35.074c0.082-0.143-1.154-1.908-1.154-1.908s1.252-1.757,1.146-1.909
				c-0.096-0.144-2.436,0.367-2.436,0.367s-1.549-1.602-1.729-1.543c-0.17,0.057-0.352,2.136-0.352,2.136s-2.217,0.802-2.217,0.958
				c0,0.169,2.221,0.951,2.221,0.951s0.211,2.069,0.359,2.135c0.139,0.062,1.723-1.547,1.723-1.547S48.75,35.21,48.828,35.074z"/>
			<path fill="#EDBD45" d="M48.607,25.95c0.732-0.136,4.063-8.098,4.063-8.098s9.654-0.989,9.951-1.672
				c0.277-0.637-7.572-5.874-7.572-5.874s1.93-8.423,1.254-8.772c-0.164-0.085-0.824,0.171-1.711,0.594
				c-2.438,3.329-6.484,9.279-10.934,16.08c0.031,0.001,0.051,0.002,0.051,0.002S47.906,26.079,48.607,25.95z"/>
			<path fill="#EDBD45" d="M64.199,15.459c0.09,0.039,1.096-0.984,1.096-0.984s1.502,0.316,1.551,0.229
				c0.053-0.09-0.734-1.213-0.734-1.213s0.797-1.118,0.73-1.215c-0.063-0.091-1.551,0.233-1.551,0.233s-0.984-1.019-1.098-0.98
				c-0.109,0.035-0.225,1.357-0.225,1.357s-1.408,0.51-1.408,0.609c0,0.107,1.41,0.604,1.41,0.604S64.105,15.417,64.199,15.459z"/>
			<path fill="#EDBD45" d="M74.139,36.863c0,0,0.971-4.236,0.631-4.412c-0.322-0.167-4.398,2.247-4.398,2.247
				s-4.326-2.087-4.615-1.887c-0.313,0.217,1.09,4.344,1.09,4.344s-3.553,2.956-3.482,3.247c0.064,0.276,5.072,0.438,5.072,0.438
				s2.111,3.959,2.463,3.894c0.369-0.068,2.045-4.073,2.045-4.073s4.855-0.498,5.006-0.842
				C78.088,39.499,74.139,36.863,74.139,36.863z"/>
			<path fill="#EDBD45" d="M49.842,37.576c-0.063-0.092-1.551,0.233-1.551,0.233s-0.984-1.02-1.098-0.98
				c-0.109,0.035-0.225,1.357-0.225,1.357s-1.408,0.51-1.408,0.609c0,0.107,1.41,0.604,1.41,0.604s0.135,1.315,0.229,1.358
				c0.09,0.039,1.096-0.985,1.096-0.985s1.502,0.317,1.551,0.23c0.053-0.09-0.734-1.213-0.734-1.213S49.908,37.672,49.842,37.576z"
				/>
			<path fill="#EDBD45" d="M28.51,50.341c0.531-0.098,2.945-5.867,2.945-5.867s6.993-0.716,7.208-1.21
				c0.201-0.461-5.487-4.256-5.487-4.256s1.042-4.551,1.009-5.951c-3.064,4.938-5.913,9.683-8.14,13.645
				C26.973,48.34,28.203,50.399,28.51,50.341z"/>
			<path fill="#EDBD45" d="M69.408,55.707c-0.125-0.181-3.1,0.468-3.1,0.468s-1.969-2.036-2.197-1.961
				c-0.215,0.071-0.445,2.715-0.445,2.715s-2.818,1.019-2.818,1.217c0,0.215,2.822,1.211,2.822,1.211s0.27,2.63,0.457,2.713
				c0.176,0.079,2.189-1.967,2.189-1.967s3,0.632,3.1,0.459c0.104-0.182-1.469-2.425-1.469-2.425S69.539,55.901,69.408,55.707z"/>
			<path fill="#EDBD45" d="M39.821,51.321c-0.097-0.144-2.436,0.367-2.436,0.367s-1.549-1.602-1.729-1.542
				c-0.169,0.056-0.352,2.135-0.352,2.135s-2.216,0.802-2.216,0.958c0,0.169,2.219,0.951,2.219,0.951s0.212,2.069,0.359,2.135
				c0.14,0.062,1.723-1.547,1.723-1.547s2.359,0.497,2.438,0.361c0.082-0.144-1.154-1.909-1.154-1.909S39.925,51.473,39.821,51.321z
				"/>
			<path fill="#EDBD45" d="M105.93,58.37c0.387-0.108,0.648-0.215,0.691-0.315c0.277-0.637-7.572-5.874-7.572-5.874
				s0.1-0.443,0.244-1.112L88.84,46.973c-0.1-0.168-0.205-0.344-0.307-0.514c-2.539-1.161-5.805-2.576-6.152-2.335
				c-0.621,0.431,2.17,8.636,2.17,8.636s-7.063,5.876-6.926,6.454c0.131,0.549,10.084,0.869,10.084,0.869s0.32,0.6,0.791,1.453
				c0.35-0.069,0.697-0.137,1.047-0.204l-0.064-0.233L105.93,58.37z"/>
			<path fill="#EDBD45" d="M25.943,58.107c0,0,4.855-0.498,5.005-0.842c0.14-0.319-3.81-2.954-3.81-2.954s0.971-4.237,0.631-4.413
				c-0.322-0.166-4.398,2.247-4.398,2.247s-4.327-2.087-4.616-1.886c-0.312,0.216,1.091,4.343,1.091,4.343s-3.553,2.956-3.483,3.247
				c0.065,0.276,5.073,0.438,5.073,0.438s0.65,1.219,1.289,2.292l1.909,0.432C25.231,59.805,25.943,58.107,25.943,58.107z"/>
		</g>
		<path fill="#001151" d="M27.513,44.152l-1.577,2.754l-4.311,1.531c0,0,45.564,4.875,70.637-0.12l-3.422-1.332l-1.691-2.833
			C75.41,47.35,40.412,46.224,27.513,44.152z"/>
	</g>
	<path fill="#BFB4AC" d="M52.016,54.438c0,0,4.76,1.064,9.436-0.814c2.269-0.912,2.579-2.112,3.441-3.714
		C64.777,46.347,51.984,34.967,45.4,34.599c-4.436-1.285-8.967,0.969-7.613,1.085c1.353,0.116,4.922-0.085,6.413,0.947
		c6.356,3.322,6.59,8.06,7.343,10.578C52.39,50.04,52.016,54.438,52.016,54.438z"/>
	<path fill="none" stroke="#534741" stroke-width="1.5" stroke-linecap="round" stroke-miterlimit="10" d="M79.285,79.48
		L79.285,79.48c1.702-0.663,4.281-2.649,4.846-4.383l0,0"/>
	<path fill="none" stroke="#534741" stroke-width="1.5" stroke-linecap="round" stroke-miterlimit="10" d="M84.857,77.996
		L84.857,77.996c-1.001-0.254-4.574-0.673-5.428-1.822l0,0"/>
	<ellipse opacity="0.4" fill="#FF7BAC" cx="67.479" cy="82.223" rx="5.04" ry="4.021"/>
	<path opacity="0.4" fill="#FF7BAC" d="M87.439,76.117c0,1.392,0.665,2.618,1.676,3.339c1.041-2.316,1.73-4.784,2.033-7.353
		C89.094,72.146,87.439,73.922,87.439,76.117z"/>
</g>
</svg>
