<?xml version="1.0" encoding="utf-8"?>
<!-- Generator: Adobe Illustrator 16.0.0, SVG Export Plug-In . SVG Version: 6.00 Build 0)  -->
<!DOCTYPE svg PUBLIC "-//W3C//DTD SVG 1.1//EN" "http://www.w3.org/Graphics/SVG/1.1/DTD/svg11.dtd">
<svg version="1.1" id="Calque_1" xmlns="http://www.w3.org/2000/svg" xmlns:xlink="http://www.w3.org/1999/xlink" x="0px" y="0px"
	 width="113.643px" height="183px" viewBox="0 0 113.643 183" enable-background="new 0 0 113.643 183" xml:space="preserve">
<g id="dos">
	<g id="hands_1_">
		<g id="right_arm_1_">
			<g>
				<defs>
					<path id="SVGID_1_" d="M13.902,135.447c-2.857,7.522,4.427,16.063,6.701,16.732s2.226-3.085,5.085-10.605
						c2.858-7.524,3.334-14.163,1.059-14.834C24.471,126.072,16.762,127.924,13.902,135.447z"/>
				</defs>
				<clipPath id="SVGID_2_">
					<use xlink:href="#SVGID_1_"  overflow="visible"/>
				</clipPath>
				<path clip-path="url(#SVGID_2_)" fill="#633E3F" d="M18.825,125.522c-8.506-2.506-13.021-0.238-11.937,7.65
					c1.087,7.888,3.597,11.463,8.044,12.773c4.446,1.31,10.632-1.025,9.545-4.133c-1.086-3.11-3.539-3.749-3.539-3.749
					s1.703-0.097,3.389-4.529C26.011,129.102,22.704,126.666,18.825,125.522z"/>
			</g>
			<path fill="#AFA6A0" d="M18.825,125.522c-8.506-2.506-13.021-0.238-11.937,7.65c1.087,7.888,3.597,11.463,8.044,12.773
				c4.446,1.31,10.632-1.025,9.545-4.133c-1.086-3.11-3.539-3.749-3.539-3.749s1.703-0.097,3.389-4.529
				C26.011,129.102,22.704,126.666,18.825,125.522z"/>
		</g>
		<g id="right_arm_2_">
			<g>
				<defs>
					<path id="SVGID_3_" d="M101.348,135.447c2.857,7.522-4.428,16.063-6.701,16.732c-2.275,0.67-2.227-3.085-5.086-10.605
						c-2.857-7.524-3.334-14.163-1.059-14.834C90.777,126.072,98.486,127.924,101.348,135.447z"/>
				</defs>
				<clipPath id="SVGID_4_">
					<use xlink:href="#SVGID_3_"  overflow="visible"/>
				</clipPath>
				<path clip-path="url(#SVGID_4_)" fill="#633E3F" d="M96.424,125.522c8.506-2.506,13.021-0.238,11.938,7.65
					c-1.088,7.888-3.598,11.463-8.045,12.773c-4.445,1.31-10.631-1.025-9.545-4.133c1.086-3.11,3.539-3.749,3.539-3.749
					s-1.703-0.097-3.389-4.529C89.238,129.102,92.545,126.666,96.424,125.522z"/>
			</g>
			<path fill="#AFA6A0" d="M96.424,125.522c8.506-2.506,13.021-0.238,11.938,7.65c-1.088,7.888-3.598,11.463-8.045,12.773
				c-4.445,1.31-10.631-1.025-9.545-4.133c1.086-3.11,3.539-3.749,3.539-3.749s-1.703-0.097-3.389-4.529
				C89.238,129.102,92.545,126.666,96.424,125.522z"/>
		</g>
		<g id="arms_2_">
			
				<linearGradient id="right_2_" gradientUnits="userSpaceOnUse" x1="35.4028" y1="113.1968" x2="66.0889" y2="113.1968" gradientTransform="matrix(-1 0 0 1 144.3711 0)">
				<stop  offset="0" style="stop-color:#BFB4AC"/>
				<stop  offset="1" style="stop-color:#A09892"/>
			</linearGradient>
			<path id="right_1_" fill="url(#right_2_)" d="M81.922,89.566c0,0,26.139,20.332,27.029,39.955
				c0.457,10.092-8.455,7.674-10.533,4.813c-6.266-8.62-9.857-27.297-19.561-40.789C76.551,90.336,81.922,89.566,81.922,89.566z"/>
		</g>
		<g id="arms_1_">
			<linearGradient id="right_3_" gradientUnits="userSpaceOnUse" x1="6.2813" y1="113.1968" x2="36.9678" y2="113.1968">
				<stop  offset="0" style="stop-color:#BFB4AC"/>
				<stop  offset="1" style="stop-color:#A09892"/>
			</linearGradient>
			<path id="right_4_" fill="url(#right_3_)" d="M33.328,89.566c0,0-26.139,20.332-27.029,39.955
				c-0.458,10.092,8.455,7.674,10.533,4.813c6.266-8.62,9.857-27.297,19.561-40.789C38.699,90.336,33.328,89.566,33.328,89.566z"/>
		</g>
	</g>
	<g id="body">
		<path fill="#BFB4AC" d="M99.41,125.768c0,30.094-16.207,44.808-42.367,44.808c-26.159,0-42.367-14.714-42.367-44.808
			c0-11.688,17.763-30.303,19.569-32.235c5.308-5.678,11.108-10.784,22.797-10.807c12.287-0.023,18.699,6.502,23.988,12.708
			C82.461,97.113,99.41,114.519,99.41,125.768z"/>
	</g>
	<g id="feet_8_">
		<path fill="#633E3F" d="M62.48,183h9.936l1.021-0.981l0.93,0.981h10.4c0,0,1.998-9.318-11.816-9.318S62.48,183,62.48,183z"/>
		<path fill="#633E3F" d="M30.48,183h9.937l1.021-0.981l0.93,0.981h10.4c0,0,1.998-9.318-11.817-9.318
			C27.136,173.681,30.48,183,30.48,183z"/>
		<path fill="#AFA6A0" d="M81,177.173c-1.73,2.39-12.727,2.547-14.457,0.371c-1.465-1.842-2.846-12.54-1.965-14.129
			c1.658-2.998,5.645-4.118,9.053-4.118c3.326,0,9.25,0.144,10.932,3.021C85.518,163.954,82.297,175.382,81,177.173z"/>
		<path fill="#AFA6A0" d="M49,177.053c-1.73,2.391-12.727,2.547-14.458,0.371c-1.465-1.842-4.846-14.3-3.965-15.889
			c1.659-2.998,7.645-2.358,11.053-2.358c3.326,0,7.25,1.904,8.932,4.782C51.518,165.594,50.297,175.263,49,177.053z"/>
	</g>
	<g id="head">
		<path opacity="0.4" fill="#7F7974" d="M57.043,81.846c-9.82,0-21.917,2.294-25.602,6.708c3.754,6.732,14.651,11.404,25.893,11.409
			c11.105,0.004,22.775-3.928,25.297-10.837C76.762,83.315,67.596,81.846,57.043,81.846z"/>
		<path fill="#BFB4AC" d="M85.662,52.458c-6.59-6.6-16.824-10.845-28.328-10.845c-11.248,0-21.288,4.055-27.889,10.404
			c0,0-6.383,10.194-6.057,19.435c1.02,14.907,14.721,26.751,33.946,26.751c19.422,0,33.244-12.093,33.965-27.222
			C90.408,57.369,85.662,52.458,85.662,52.458z"/>
	</g>
	<g id="chapeua">
		
			<linearGradient id="legs_and_tail_1_" gradientUnits="userSpaceOnUse" x1="81.2334" y1="156.9341" x2="130.4316" y2="156.9341" gradientTransform="matrix(-1 0 0 1 140.543 0)">
			<stop  offset="0" style="stop-color:#BFB4AC"/>
			<stop  offset="1" style="stop-color:#A09892"/>
		</linearGradient>
		<path id="legs_and_tail" fill="url(#legs_and_tail_1_)" d="M53.357,156.496c7.928-5.963,7.266,4.025,1.943,6.028
			c-28.944,10.89-45.944-13.623-45.165-13.964C10.761,148.287,36.482,169.187,53.357,156.496z"/>
		<path fill="#BFB4AC" d="M33.348,49.229c0,0,8.966,0.357,11.298-4.009c-0.102-3.152-11.325-13.227-17.102-13.552
			c-3.891-1.137-7.867,0.859-6.679,0.962c1.187,0.101,4.318-0.076,5.626,0.837c5.576,2.941,5.781,7.134,6.442,9.364
			C33.676,45.336,33.348,49.229,33.348,49.229z"/>
		<path fill="#BFB4AC" d="M80.949,49.229c0,0-8.965,0.357-11.297-4.009c0.102-3.152,11.324-13.227,17.102-13.552
			c3.891-1.137,7.867,0.859,6.678,0.962c-1.186,0.101-4.318-0.076-5.625,0.837c-5.576,2.941-5.781,7.134-6.443,9.364
			C80.621,45.336,80.949,49.229,80.949,49.229z"/>
		<path fill="#001891" d="M88.838,47.393C80.695,33.562,66.533,9.879,60.434,1.978C59.906,1.293,58.592-0.013,57.504,0
			c-1.063,0.014-2.283,1.28-2.77,1.951c-5.756,7.888-21.1,31.513-28.799,45.362L1.193,56.213c0,0-1.096,0.548-1.184,1.096
			c-0.109,0.673,0.717,1.559,1.174,1.931c2.34,1.911,18.62,5.602,22.754,6.429c0.545-1.282,0.475-2.888,1.09-4.023
			c23.241,4.91,42.139,4.896,64.883,0.163c0.477,1.009,0.379,2.605,0.795,3.86c3.691-0.789,17.475-3.962,19.918-5.701
			c1.844-1.311,3.143-1.486,3.008-2.364c-0.133-0.863-3.41-1.761-3.41-1.761L88.838,47.393z"/>
		<path opacity="0.5" d="M1.193,56.213l23.834,5.432l-1.09,4.023C23.937,65.668-4.311,60.941,1.193,56.213z"/>
		<path opacity="0.5" d="M113.631,57.603l-24.148,4.042l1.09,4.023C90.572,65.668,110.533,61.635,113.631,57.603z"/>
		<g>
			<path fill="#EDBD45" d="M66.16,35.387c-0.08-0.144,1.154-1.925,1.154-1.925s-1.25-1.772-1.146-1.928
				c0.098-0.145,2.436,0.371,2.436,0.371s1.551-1.615,1.73-1.556c0.168,0.057,0.352,2.154,0.352,2.154S72.9,33.312,72.9,33.47
				c0,0.171-2.219,0.96-2.219,0.96s-0.213,2.088-0.359,2.153c-0.141,0.063-1.723-1.561-1.723-1.561S66.238,35.525,66.16,35.387z"/>
			<path fill="#EDBD45" d="M66.383,26.496c-0.732-0.137-4.064-8.329-4.064-8.329s-9.654-1.075-9.951-1.764
				c-0.277-0.642,7.574-5.965,7.574-5.965s-1.93-8.517-1.254-8.871c0.164-0.086,0.861,0.308,1.746,0.734
				C63.252,5.868,67.285,12,71.33,19c-0.029,0-0.051,0-0.051,0S67.082,26.626,66.383,26.496z"/>
			<path fill="#EDBD45" d="M50.789,15.597c-0.088,0.04-1.096-0.992-1.096-0.992s-1.5,0.318-1.551,0.23
				c-0.051-0.091,0.734-1.224,0.734-1.224s-0.795-1.128-0.73-1.226c0.063-0.091,1.551,0.235,1.551,0.235s0.984-1.027,1.1-0.988
				c0.107,0.036,0.223,1.37,0.223,1.37s1.41,0.514,1.41,0.613c0,0.108-1.412,0.61-1.412,0.61S50.883,15.555,50.789,15.597z"/>
			<path fill="#EDBD45" d="M40.85,37.193c0,0-0.971-4.274-0.631-4.452c0.322-0.168,4.398,2.268,4.398,2.268s4.328-2.106,4.617-1.904
				c0.311,0.22-1.092,4.383-1.092,4.383s3.553,2.982,3.484,3.276c-0.066,0.278-5.074,0.441-5.074,0.441s-2.111,3.993-2.463,3.928
				c-0.369-0.068-2.045-4.11-2.045-4.11s-4.855-0.502-5.004-0.848C36.901,39.852,40.85,37.193,40.85,37.193z"/>
			<path fill="#EDBD45" d="M65.146,37.911c0.063-0.091,1.551,0.235,1.551,0.235s0.984-1.026,1.1-0.988
				c0.107,0.036,0.223,1.37,0.223,1.37s1.41,0.515,1.41,0.614c0,0.108-1.412,0.61-1.412,0.61s-0.135,1.327-0.229,1.369
				c-0.088,0.04-1.096-0.992-1.096-0.992s-1.5,0.318-1.551,0.231c-0.051-0.092,0.734-1.225,0.734-1.225S65.082,38.009,65.146,37.911
				z"/>
			<path fill="#EDBD45" d="M85.479,49.912c-0.531-0.1-2.945-5.92-2.945-5.92s-6.992-0.723-7.207-1.221
				c-0.201-0.466,5.486-4.294,5.486-4.294s-0.883-4.592-0.852-6.005c3.064,4.982,5.941,9.736,8.168,13.732
				C87.201,47.858,85.785,49.968,85.479,49.912z"/>
			<path fill="#EDBD45" d="M45.58,56.205c0.125-0.184,3.1,0.472,3.1,0.472s1.969-2.055,2.197-1.979
				c0.217,0.073,0.447,2.74,0.447,2.74s2.816,1.027,2.816,1.228c0,0.216-2.82,1.22-2.82,1.22s-0.27,2.654-0.457,2.739
				c-0.178,0.079-2.191-1.986-2.191-1.986s-3,0.639-3.1,0.465c-0.104-0.185,1.469-2.448,1.469-2.448S45.451,56.401,45.58,56.205z"/>
			<path fill="#EDBD45" d="M75.168,51.779c0.098-0.145,2.436,0.371,2.436,0.371s1.551-1.616,1.73-1.556
				c0.168,0.057,0.352,2.154,0.352,2.154s2.215,0.808,2.215,0.966c0,0.17-2.219,0.96-2.219,0.96s-0.213,2.088-0.359,2.153
				c-0.141,0.062-1.723-1.562-1.723-1.562s-2.361,0.502-2.439,0.365c-0.08-0.144,1.154-1.925,1.154-1.925
				S75.064,51.933,75.168,51.779z"/>
			<path fill="#EDBD45" d="M9.059,58.012c-0.386-0.11-0.648-0.219-0.691-0.32c-0.277-0.641,7.573-5.045,7.573-5.045
				s-0.165-0.953-0.31-1.627l10.618-3.797c0.1-0.169,0.104-0.177,0.206-0.349c2.539-1.171,5.806-2.6,6.152-2.355
				c0.621,0.435-2.169,8.712-2.169,8.712s7.063,5.93,6.925,6.512c-0.13,0.554-10.084,0.877-10.084,0.877s-0.135,0.506-0.605,1.367
				C26.325,61.916,9.059,58.012,9.059,58.012z"/>
			<path fill="#EDBD45" d="M89.045,58.625c0,0-4.855-0.502-5.004-0.849c-0.141-0.322,3.809-2.98,3.809-2.98
				s-0.971-4.274-0.631-4.452c0.322-0.168,4.398,2.268,4.398,2.268s4.328-2.107,4.617-1.904c0.311,0.219-1.092,4.383-1.092,4.383
				s3.553,2.982,3.484,3.275c-0.066,0.278-5.074,0.442-5.074,0.442s-0.65,1.229-1.289,2.312l-1.908,0.436
				C89.758,60.34,89.045,58.625,89.045,58.625z"/>
		</g>
		<path fill="#001151" d="M27.513,44.546l-1.578,2.778l-4.311,1.545c0,0,45.565,4.919,70.637-0.122l-3.424-1.343l-1.691-2.858
			C75.41,47.774,40.411,46.637,27.513,44.546z"/>
	</g>
</g>
</svg>
