<?xml version="1.0" encoding="utf-8"?>
<!-- Generator: Adobe Illustrator 16.0.0, SVG Export Plug-In . SVG Version: 6.00 Build 0)  -->
<!DOCTYPE svg PUBLIC "-//W3C//DTD SVG 1.1//EN" "http://www.w3.org/Graphics/SVG/1.1/DTD/svg11.dtd">
<svg version="1.1" id="Calque_1" xmlns="http://www.w3.org/2000/svg" xmlns:xlink="http://www.w3.org/1999/xlink" x="0px" y="0px"
	 width="113.643px" height="183px" viewBox="0 0 113.643 183" enable-background="new 0 0 113.643 183" xml:space="preserve">
<g>
	<g id="feet_2_">
		<path fill="#AFA6A0" d="M25.928,177.477c1.412,2.369,3.58-0.476,6.013-0.476c2.302,0,4.37,3,5.781,0.843
			c1.195-1.824,2.321-20.279,1.603-21.854c-1.354-2.972-4.604-4.081-7.384-4.081c-2.713,0-7.545,0.142-8.917,2.993
			C22.243,156.523,24.872,175.703,25.928,177.477z"/>
		<path fill="#AFA6A0" d="M49.641,177.477c1.73,2.369,4.389-0.476,7.371-0.476c2.822,0,5.357,3,7.088,0.843
			c1.465-1.824,3.846-12.428,2.965-14.004c-1.659-2.971-6.645-4.08-10.053-4.08c-3.326,0-7.25,1.886-8.932,4.738
			C47.123,166.119,48.346,175.703,49.641,177.477z"/>
		<path fill="#633E3F" d="M68.162,183h-9.938l-1.021-0.973L56.275,183H45.873c0,0-1.996-9.236,11.818-9.236S68.162,183,68.162,183z"
			/>
		<path fill="#633E3F" d="M41.035,183H32.93l-0.833-0.973L31.34,183h-8.484c0,0-1.629-9.236,9.64-9.236S41.035,183,41.035,183z"/>
	</g>
	<g id="arms_6_">
		
			<linearGradient id="right_1_" gradientUnits="userSpaceOnUse" x1="40.3979" y1="113.5952" x2="68.8789" y2="113.5952" gradientTransform="matrix(1 0 0 1 -30.7285 0)">
			<stop  offset="0" style="stop-color:#BFB4AC"/>
			<stop  offset="1" style="stop-color:#A09892"/>
		</linearGradient>
		<path id="right_8_" fill="url(#right_1_)" d="M30.721,94.007c0,0-20.139,14.919-21.029,34.366
			c-0.459,10.003,6.455,7.605,8.533,4.772c6.266-8.545,9.857-27.056,19.561-40.429C40.092,89.536,30.721,94.007,30.721,94.007z"/>
	</g>
	<g id="body_2_">
		<path fill="#BFB4AC" d="M16.232,124.654c-1.078,29.813,14.205,44.411,40.367,44.411c26.158,0,40.337-18.98,38.366-43.538
			c-1.263-15.729-13.763-30.906-15.569-32.821c-5.309-5.628-11.107-10.69-22.797-10.713C44.311,81.97,41.9,84.95,36.611,91.1
			C35.18,92.763,16.834,108.053,16.232,124.654z"/>
		<path opacity="0.4" fill="#7F7974" d="M18.846,132.657c0,17.908,13.512,28.955,20.072,28.937
			c12.74-0.036,24.07-11.028,24.07-28.937c0-17.907-11.33-32.426-24.07-32.426C31.533,100.231,18.846,114.75,18.846,132.657z"/>
	</g>
	<g id="hands_3_">
		<g id="arms_5_">
			
				<linearGradient id="right_2_" gradientUnits="userSpaceOnUse" x1="32.2622" y1="117.394" x2="55.9844" y2="117.394" gradientTransform="matrix(-1 0 0 1 113.6426 0)">
				<stop  offset="0" style="stop-color:#BFB4AC"/>
				<stop  offset="1" style="stop-color:#A09892"/>
			</linearGradient>
			<path id="right_7_" fill="url(#right_2_)" d="M67.994,95.751c0,0,14.207,11.793,13.349,36.984
				c-0.341,10.007-10.985,7.605-13.194,4.772c-6.659-8.545-4.129-25.602-10.41-41.302C56.597,93.355,67.994,95.751,67.994,95.751z"
				/>
		</g>
		<g id="right_arm_6_">
			<path fill="#AFA6A0" d="M66.03,128.772c9.04-2.482,15.839-0.235,14.686,7.582c-1.155,7.819-4.616,9.448-10.549,12.662
				c-4.208,2.279-11.299-1.018-10.144-4.097c1.154-3.082,3.762-3.716,3.762-3.716s-1.811-0.096-3.602-4.49
				C58.393,132.322,61.908,129.905,66.03,128.772z"/>
			<g>
				<defs>
					<path id="SVGID_1_" d="M71.262,135.993c3.037,7.455-4.704,15.92-7.121,16.584c-2.418,0.664-2.365-3.057-5.404-10.511
						c-3.037-7.458-3.543-14.038-1.125-14.703C60.029,126.701,68.223,128.537,71.262,135.993z"/>
				</defs>
				<clipPath id="SVGID_2_">
					<use xlink:href="#SVGID_1_"  overflow="visible"/>
				</clipPath>
				<path clip-path="url(#SVGID_2_)" fill="#633E3F" d="M66.03,128.772c9.04-2.482,13.839-0.235,12.686,7.582
					c-1.155,7.819-3.822,11.363-8.549,12.662c-4.726,1.298-11.299-1.018-10.144-4.097c1.154-3.082,3.762-3.716,3.762-3.716
					s-1.811-0.096-3.602-4.49C58.393,132.322,61.908,129.905,66.03,128.772z"/>
			</g>
		</g>
		<g id="right_arm_5_">
			<path fill="#AFA6A0" d="M16.054,127.04c-3.888-1.602-6.276,1.244-6.354,5.143c-0.125,6.254,3.051,9.069,5.762,10.361
				s6.139-0.118,5.246-2.583c-0.893-2.466-2.381-3.115-2.381-3.115s0.988,0.034,1.609-3.278
				C20.556,130.256,17.758,127.741,16.054,127.04z"/>
			<g>
				<defs>
					<path id="SVGID_3_" d="M13.775,134.631c-0.711,5.658,4.674,12.468,6.1,13.064c1.424,0.598,0.911-2.281,1.623-7.94
						c0.713-5.663,0.136-10.731-1.289-11.329C18.783,127.831,14.488,128.97,13.775,134.631z"/>
				</defs>
				<clipPath id="SVGID_4_">
					<use xlink:href="#SVGID_3_"  overflow="visible"/>
				</clipPath>
				<path clip-path="url(#SVGID_4_)" fill="#633E3F" d="M16.054,127.04c-5.185-2.47-7.64-1.008-6.354,5.143
					c1.287,6.153,3.051,9.069,5.762,10.361s6.139-0.118,5.246-2.583c-0.893-2.466-2.381-3.115-2.381-3.115s0.988,0.034,1.609-3.278
					C20.556,130.256,18.418,128.167,16.054,127.04z"/>
			</g>
		</g>
	</g>
	<g id="head_2_">
		<path opacity="0.4" fill="#7F7974" d="M56.6,81.121c9.818,0,21.917,2.274,25.602,6.649c-3.685,9.015-14.65,16.538-25.893,16.542
			c-11.105,0.005-22.051-6.219-25.297-15.975C36.881,82.578,46.045,81.121,56.6,81.121z"/>
		<path fill="#BFB4AC" d="M27.98,51.994c6.588-6.541,16.824-10.75,28.328-10.75c11.246,0,21.287,4.02,27.889,10.313
			c0,0,6.383,10.104,6.057,19.262c-1.02,14.776-14.721,26.514-33.945,26.514c-19.424,0-33.246-11.985-33.967-26.98
			C23.232,56.861,27.98,51.994,27.98,51.994z"/>
		<g>
			<path id="right_6_" fill="none" stroke="#534741" stroke-width="3.3508" stroke-linecap="round" stroke-miterlimit="10" d="
				M46.512,74.028c0,0,0.284-4.553-3.152-5.463c-3.436-0.91-4.865,2.731-4.865,2.731"/>
			<path id="left_1_" fill="none" stroke="#534741" stroke-width="3.3508" stroke-linecap="round" stroke-miterlimit="10" d="
				M26.391,67.286c0,0,0.16-1.186,0.869-1.452c2.118-0.796,2.597,3.013,2.597,3.013"/>
			<ellipse fill="#232323" cx="27.836" cy="69.032" rx="2.32" ry="3.614"/>
			<ellipse fill="#232323" cx="42.166" cy="72.646" rx="4.351" ry="4.61"/>
		</g>
	</g>
	<path fill="#BFB4AC" d="M25.984,47.823c0,0,7.529,0.298,9.488-3.336c-0.086-2.624-9.51-11.008-14.361-11.28
		c-3.268-0.946-6.607,0.715-5.609,0.8c0.996,0.086,3.626-0.063,4.725,0.698c4.684,2.448,4.855,5.938,5.41,7.793
		C26.26,44.583,25.984,47.823,25.984,47.823z"/>
	<g id="chapeua_2_">
		<path fill="#001891" d="M24.803,46.973C32.945,33.264,47.107,9.792,53.207,1.959C53.736,1.282,55.051-0.014,56.139,0
			c1.063,0.014,2.281,1.27,2.77,1.933c5.754,7.818,21.1,31.234,28.799,44.962l24.742,8.82c0,0,1.096,0.543,1.184,1.086
			c0.109,0.667-0.717,1.546-1.174,1.914c-2.34,1.895-18.62,5.553-22.754,6.371c-0.545-1.27-0.475-2.861-1.09-3.987
			c-23.24,4.867-42.141,4.853-64.883,0.161c-0.477,1.001-0.381,2.583-0.797,3.826c-3.691-0.781-17.473-3.927-19.916-5.65
			c-1.844-1.3-3.145-1.473-3.01-2.344c0.133-0.854,3.412-1.744,3.412-1.744L24.803,46.973z"/>
		<path opacity="0.5" d="M112.449,55.715l-23.834,5.384l1.09,3.987C89.705,65.086,117.953,60.401,112.449,55.715z"/>
		<path opacity="0.5" d="M0.01,57.092l24.15,4.007l-1.09,3.987C23.07,65.086,3.109,61.089,0.01,57.092z"/>
		<g>
			<path fill="#EDBD45" d="M64.814,35.074c-0.082-0.143,1.154-1.908,1.154-1.908s-1.252-1.757-1.146-1.909
				c0.096-0.144,2.436,0.367,2.436,0.367s1.549-1.602,1.729-1.543c0.17,0.057,0.352,2.136,0.352,2.136s2.217,0.802,2.217,0.958
				c0,0.169-2.221,0.951-2.221,0.951s-0.211,2.069-0.359,2.135c-0.139,0.062-1.723-1.547-1.723-1.547S64.893,35.21,64.814,35.074z"
				/>
			<path fill="#EDBD45" d="M65.035,25.95c-0.732-0.136-4.063-8.098-4.063-8.098s-9.654-0.989-9.951-1.672
				c-0.277-0.637,7.572-5.874,7.572-5.874s-1.93-8.423-1.254-8.772c0.164-0.085,0.824,0.171,1.711,0.594
				c2.438,3.329,6.484,9.279,10.934,16.08c-0.031,0.001-0.051,0.002-0.051,0.002S65.736,26.079,65.035,25.95z"/>
			<path fill="#EDBD45" d="M49.443,15.459c-0.09,0.039-1.096-0.984-1.096-0.984s-1.502,0.316-1.551,0.229
				c-0.053-0.09,0.734-1.213,0.734-1.213s-0.797-1.118-0.73-1.215c0.063-0.091,1.551,0.233,1.551,0.233s0.984-1.019,1.098-0.98
				c0.109,0.035,0.225,1.357,0.225,1.357s1.408,0.51,1.408,0.609c0,0.107-1.41,0.604-1.41,0.604S49.537,15.417,49.443,15.459z"/>
			<path fill="#EDBD45" d="M39.504,36.863c0,0-0.971-4.236-0.631-4.412c0.322-0.167,4.398,2.247,4.398,2.247
				s4.326-2.087,4.615-1.887c0.313,0.217-1.09,4.344-1.09,4.344s3.553,2.956,3.482,3.247c-0.064,0.276-5.072,0.438-5.072,0.438
				s-2.111,3.959-2.463,3.894c-0.369-0.068-2.045-4.073-2.045-4.073s-4.855-0.498-5.006-0.842
				C35.555,39.499,39.504,36.863,39.504,36.863z"/>
			<path fill="#EDBD45" d="M63.801,37.576c0.063-0.092,1.551,0.233,1.551,0.233s0.984-1.02,1.098-0.98
				c0.109,0.035,0.225,1.357,0.225,1.357s1.408,0.51,1.408,0.609c0,0.107-1.41,0.604-1.41,0.604s-0.135,1.315-0.229,1.358
				c-0.09,0.039-1.096-0.985-1.096-0.985s-1.502,0.317-1.551,0.23c-0.053-0.09,0.734-1.213,0.734-1.213S63.734,37.672,63.801,37.576
				z"/>
			<path fill="#EDBD45" d="M85.133,50.341c-0.531-0.098-2.945-5.867-2.945-5.867s-6.992-0.716-7.209-1.21
				c-0.201-0.461,5.488-4.256,5.488-4.256s-1.042-4.551-1.01-5.951c3.064,4.938,5.912,9.683,8.14,13.645
				C86.67,48.34,85.439,50.399,85.133,50.341z"/>
			<path fill="#EDBD45" d="M44.234,55.707c0.125-0.181,3.1,0.468,3.1,0.468s1.969-2.036,2.197-1.961
				c0.215,0.071,0.445,2.715,0.445,2.715s2.818,1.019,2.818,1.217c0,0.215-2.822,1.211-2.822,1.211s-0.27,2.63-0.457,2.713
				c-0.176,0.079-2.189-1.967-2.189-1.967s-3,0.632-3.1,0.459c-0.104-0.182,1.469-2.425,1.469-2.425S44.104,55.901,44.234,55.707z"
				/>
			<path fill="#EDBD45" d="M73.822,51.321c0.096-0.144,2.436,0.367,2.436,0.367s1.549-1.602,1.729-1.542
				c0.17,0.056,0.352,2.135,0.352,2.135s2.217,0.802,2.217,0.958c0,0.169-2.22,0.951-2.22,0.951s-0.212,2.069-0.359,2.135
				c-0.14,0.062-1.724-1.547-1.724-1.547s-2.359,0.497-2.438,0.361c-0.082-0.144,1.154-1.909,1.154-1.909
				S73.717,51.473,73.822,51.321z"/>
			<path fill="#EDBD45" d="M7.713,58.37c-0.387-0.108-0.648-0.215-0.691-0.315c-0.277-0.637,7.572-5.874,7.572-5.874
				s-0.1-0.443-0.244-1.112l10.453-4.095c0.1-0.168,0.205-0.344,0.307-0.514c2.539-1.161,5.805-2.576,6.152-2.335
				c0.621,0.431-2.17,8.636-2.17,8.636s7.063,5.876,6.926,6.454c-0.131,0.549-10.084,0.869-10.084,0.869s-0.32,0.6-0.791,1.453
				c-0.35-0.069-0.697-0.137-1.047-0.204l0.064-0.233L7.713,58.37z"/>
			<path fill="#EDBD45" d="M87.699,58.107c0,0-4.855-0.498-5.005-0.842c-0.14-0.319,3.81-2.954,3.81-2.954s-0.971-4.237-0.631-4.413
				c0.322-0.166,4.398,2.247,4.398,2.247s4.327-2.087,4.616-1.886c0.312,0.216-1.091,4.343-1.091,4.343s3.553,2.956,3.483,3.247
				c-0.065,0.276-5.073,0.438-5.073,0.438s-0.65,1.219-1.289,2.292L89.01,61.01C88.411,59.805,87.699,58.107,87.699,58.107z"/>
		</g>
		<path fill="#001151" d="M86.129,44.152l1.578,2.754l4.311,1.531c0,0-45.564,4.875-70.637-0.12l3.422-1.332l1.691-2.833
			C38.232,47.35,73.23,46.224,86.129,44.152z"/>
	</g>
	<path fill="#BFB4AC" d="M61.627,54.438c0,0-4.76,1.064-9.436-0.814c-2.269-0.912-2.579-2.112-3.441-3.714
		c0.115-3.563,12.908-14.942,19.492-15.311c4.436-1.285,8.967,0.969,7.613,1.085s-4.922-0.085-6.413,0.947
		c-6.356,3.322-6.59,8.06-7.343,10.578C61.253,50.04,61.627,54.438,61.627,54.438z"/>
	<path fill="none" stroke="#534741" stroke-width="1.5" stroke-linecap="round" stroke-miterlimit="10" d="M34.357,79.48
		L34.357,79.48c-1.702-0.663-4.281-2.649-4.846-4.383l0,0"/>
	<path fill="none" stroke="#534741" stroke-width="1.5" stroke-linecap="round" stroke-miterlimit="10" d="M28.785,77.996
		L28.785,77.996c1.001-0.254,4.574-0.673,5.428-1.822l0,0"/>
	<ellipse opacity="0.4" fill="#FF7BAC" cx="46.163" cy="82.223" rx="5.04" ry="4.021"/>
	<path opacity="0.4" fill="#FF7BAC" d="M26.203,76.117c0,1.392-0.665,2.618-1.676,3.339c-1.041-2.316-1.73-4.784-2.033-7.353
		C24.549,72.146,26.203,73.922,26.203,76.117z"/>
</g>
</svg>
